<svg width="24" height="24" viewBox="0 0 24 24" fill="none" xmlns="http://www.w3.org/2000/svg">
<path fill-rule="evenodd" clip-rule="evenodd" d="M12 4C9.79086 4 8 5.79086 8 8C8 10.2091 9.79086 12 12 12C14.2091 12 16 10.2091 16 8C16 5.79086 14.2091 4 12 4ZM6 8C6 4.68629 8.68629 2 12 2C15.3137 2 18 4.68629 18 8C18 11.3137 15.3137 14 12 14C8.68629 14 6 11.3137 6 8Z" fill="url(#paint0_linear_59_38027)"/>
<path fill-rule="evenodd" clip-rule="evenodd" d="M5.63604 14.636C7.32387 12.9482 9.61305 12 12 12C14.3869 12 16.6761 12.9482 18.364 14.636C20.0518 16.3239 21 18.6131 21 21C21 21.5523 20.5523 22 20 22C19.4477 22 19 21.5523 19 21C19 19.1435 18.2625 17.363 16.9497 16.0503C15.637 14.7375 13.8565 14 12 14C10.1435 14 8.36301 14.7375 7.05025 16.0503C5.7375 17.363 5 19.1435 5 21C5 21.5523 4.55228 22 4 22C3.44772 22 3 21.5523 3 21C3 18.6131 3.94821 16.3239 5.63604 14.636Z" fill="url(#paint1_linear_59_38027)"/>
<defs>
<linearGradient id="paint0_linear_59_38027" x1="6" y1="2" x2="20.412" y2="6.88722" gradientUnits="userSpaceOnUse">
<stop stop-color="#2BB48B"/>
<stop offset="1" stop-color="#E56A1F"/>
</linearGradient>
<linearGradient id="paint1_linear_59_38027" x1="3" y1="12" x2="20.561" y2="22.7191" gradientUnits="userSpaceOnUse">
<stop stop-color="#2BB48B"/>
<stop offset="1" stop-color="#E56A1F"/>
</linearGradient>
</defs>
</svg>
