<svg width="18" height="18" viewBox="0 0 18 18" fill="none" xmlns="http://www.w3.org/2000/svg">
<path d="M4.99841 -0.00926208C2.23741 -0.00926208 -0.00158691 2.22974 -0.00158691 4.99074V12.9907C-0.00158691 15.7517 2.23741 17.9907 4.99841 17.9907H12.9984C15.7594 17.9907 17.9984 15.7517 17.9984 12.9907V4.99074C17.9984 2.22974 15.7594 -0.00926208 12.9984 -0.00926208H4.99841ZM4.99841 1.99074H12.9984C14.6554 1.99074 15.9984 3.33374 15.9984 4.99074V12.9907C15.9984 14.6477 14.6554 15.9907 12.9984 15.9907H4.99841C3.34141 15.9907 1.99841 14.6477 1.99841 12.9907V4.99074C1.99841 3.33374 3.34141 1.99074 4.99841 1.99074ZM12.9984 3.99074C12.4464 3.99074 11.9984 4.43874 11.9984 4.99074C11.9984 5.54274 12.4464 5.99074 12.9984 5.99074C13.5504 5.99074 13.9984 5.54274 13.9984 4.99074C13.9984 4.43874 13.5504 3.99074 12.9984 3.99074ZM8.99841 4.99074C6.78941 4.99074 4.99841 6.78174 4.99841 8.99074C4.99841 11.1997 6.78941 12.9907 8.99841 12.9907C11.2074 12.9907 12.9984 11.1997 12.9984 8.99074C12.9984 6.78174 11.2074 4.99074 8.99841 4.99074ZM8.99841 6.99074C10.1034 6.99074 10.9984 7.88574 10.9984 8.99074C10.9984 10.0957 10.1034 10.9907 8.99841 10.9907C7.89341 10.9907 6.99841 10.0957 6.99841 8.99074C6.99841 7.88574 7.89341 6.99074 8.99841 6.99074Z" fill="black"/>
</svg>
