<svg width="18" height="19" viewBox="0 0 18 19" fill="none" xmlns="http://www.w3.org/2000/svg">
<path d="M4.99841 0.760925C2.23741 0.760925 -0.00158691 2.99993 -0.00158691 5.76093V13.7609C-0.00158691 16.5219 2.23741 18.7609 4.99841 18.7609H12.9984C15.7594 18.7609 17.9984 16.5219 17.9984 13.7609V5.76093C17.9984 2.99993 15.7594 0.760925 12.9984 0.760925H4.99841ZM4.99841 2.76093H12.9984C14.6554 2.76093 15.9984 4.10393 15.9984 5.76093V13.7609C15.9984 15.4179 14.6554 16.7609 12.9984 16.7609H4.99841C3.34141 16.7609 1.99841 15.4179 1.99841 13.7609V5.76093C1.99841 4.10393 3.34141 2.76093 4.99841 2.76093ZM12.9984 4.76093C12.4464 4.76093 11.9984 5.20893 11.9984 5.76093C11.9984 6.31293 12.4464 6.76093 12.9984 6.76093C13.5504 6.76093 13.9984 6.31293 13.9984 5.76093C13.9984 5.20893 13.5504 4.76093 12.9984 4.76093ZM8.99841 5.76093C6.78941 5.76093 4.99841 7.55193 4.99841 9.76093C4.99841 11.9699 6.78941 13.7609 8.99841 13.7609C11.2074 13.7609 12.9984 11.9699 12.9984 9.76093C12.9984 7.55193 11.2074 5.76093 8.99841 5.76093ZM8.99841 7.76093C10.1034 7.76093 10.9984 8.65593 10.9984 9.76093C10.9984 10.8659 10.1034 11.7609 8.99841 11.7609C7.89341 11.7609 6.99841 10.8659 6.99841 9.76093C6.99841 8.65593 7.89341 7.76093 8.99841 7.76093Z" fill="white"/>
</svg>
