<svg width="21" height="20" viewBox="0 0 21 20" fill="none" xmlns="http://www.w3.org/2000/svg">
<path d="M20.6181 8.11316V7.92269V7.78936C20.351 6.38434 19.6747 5.08465 18.6703 4.04654C17.5886 2.92913 16.2546 2.07463 14.7749 1.55133C13.4597 1.05504 12.065 0.790637 10.6555 0.770384C8.7975 0.760008 6.96519 1.1949 5.31877 2.03704C3.87713 2.69662 2.66701 3.75821 1.8405 5.08838C1.01399 6.41856 0.607972 7.95797 0.673466 9.51315C0.820014 11.0507 1.43393 12.5102 2.43615 13.7036C3.43783 14.8837 4.72255 15.8031 6.17576 16.3797C7.07556 16.7183 8.00903 16.964 8.96099 17.1131H9.06812C9.3408 17.1131 9.40897 17.2274 9.42844 17.2559C9.44796 17.3245 9.44796 17.3969 9.42844 17.4654C9.42844 17.5226 9.42844 17.5702 9.42844 17.6178C9.28779 18.0382 9.24454 18.4839 9.30184 18.9226C9.32832 19.1566 9.4425 19.3727 9.62234 19.5292C9.80219 19.6858 10.0349 19.7716 10.2757 19.7702C10.84 19.7024 11.3786 19.4996 11.8436 19.1797H11.8923C12.8662 18.6273 13.7816 17.9893 14.473 17.5035C16.1417 16.4344 17.658 15.1534 18.982 13.6941C20.2591 12.1178 20.8473 10.1117 20.6181 8.11316ZM6.89641 11.0941H5.17269C5.11094 11.0954 5.04956 11.0844 4.99224 11.0619C4.93493 11.0394 4.88286 11.0058 4.83919 10.9631C4.79552 10.9204 4.76113 10.8695 4.73811 10.8134C4.71509 10.7574 4.70391 10.6973 4.70524 10.6369V7.09413C4.70391 7.03374 4.71509 6.97371 4.73811 6.91766C4.76113 6.86161 4.79552 6.8107 4.83919 6.76799C4.88286 6.72528 4.93493 6.69165 4.99224 6.66914C5.04956 6.64663 5.11094 6.63569 5.17269 6.63699C5.23489 6.63572 5.29672 6.64661 5.35456 6.66901C5.41241 6.69142 5.46509 6.72489 5.50954 6.76747C5.55398 6.81004 5.58929 6.86087 5.61339 6.91696C5.63748 6.97305 5.64989 7.03328 5.64988 7.09413V10.1703H6.89641C7.02297 10.1703 7.14435 10.2195 7.23384 10.307C7.32333 10.3945 7.3736 10.5132 7.3736 10.6369C7.37362 10.6978 7.36121 10.758 7.33711 10.8141C7.31302 10.8702 7.27771 10.921 7.23327 10.9636C7.18882 11.0062 7.13613 11.0397 7.07829 11.0621C7.02045 11.0845 6.95862 11.0954 6.89641 11.0941ZM8.69805 10.6274C8.69805 10.7537 8.64675 10.8748 8.55543 10.9641C8.46412 11.0534 8.34026 11.1036 8.21112 11.1036C8.08198 11.1036 7.95813 11.0534 7.86681 10.9641C7.77549 10.8748 7.72419 10.7537 7.72419 10.6274V7.0846C7.72419 6.95831 7.77549 6.83719 7.86681 6.74789C7.95813 6.65859 8.08198 6.60842 8.21112 6.60842C8.34026 6.60842 8.46412 6.65859 8.55543 6.74789C8.64675 6.83719 8.69805 6.95831 8.69805 7.0846V10.6274ZM12.9635 10.6274C12.9622 10.7252 12.9296 10.82 12.8701 10.8986C12.8107 10.9772 12.7276 11.0356 12.6324 11.0655H12.4864C12.412 11.0663 12.3385 11.0494 12.2724 11.0162C12.2062 10.983 12.1493 10.9346 12.1066 10.875L10.412 8.6084V10.6274C10.4095 10.7495 10.3581 10.8658 10.2689 10.9513C10.1797 11.0367 10.0597 11.0846 9.93485 11.0846C9.87105 11.0885 9.80711 11.0795 9.74698 11.0583C9.68685 11.0371 9.63181 11.0041 9.58526 10.9612C9.53871 10.9184 9.50164 10.8666 9.47634 10.8092C9.45104 10.7518 9.43806 10.6899 9.43818 10.6274V7.18936C9.43822 7.0915 9.4691 6.99603 9.5266 6.91594C9.58411 6.83584 9.66545 6.77502 9.75955 6.74175C9.85455 6.71322 9.95628 6.7144 10.0506 6.74513C10.1448 6.77586 10.2269 6.83461 10.2854 6.91318L11.9897 9.19887V7.0846C11.9897 6.95831 12.041 6.83719 12.1323 6.74789C12.2236 6.65859 12.3475 6.60842 12.4766 6.60842C12.6058 6.60842 12.7296 6.65859 12.8209 6.74789C12.9122 6.83719 12.9635 6.95831 12.9635 7.0846V10.6274ZM16.4013 11.0084H14.064C14.0023 11.0097 13.9409 10.9987 13.8836 10.9762C13.8262 10.9537 13.7742 10.9201 13.7305 10.8774C13.6868 10.8347 13.6524 10.7837 13.6294 10.7277C13.6064 10.6716 13.5952 10.6116 13.5966 10.5512V7.00841C13.5966 6.88717 13.6458 6.7709 13.7335 6.68517C13.8211 6.59944 13.94 6.55128 14.064 6.55128H16.3234C16.4525 6.55128 16.5763 6.60144 16.6677 6.69075C16.759 6.78005 16.8103 6.90117 16.8103 7.02746C16.8103 7.15375 16.759 7.27487 16.6677 7.36417C16.5763 7.45348 16.4525 7.50365 16.3234 7.50365H14.5315V8.35126H15.9922C16.1162 8.35126 16.2351 8.39942 16.3228 8.48515C16.4104 8.57088 16.4597 8.68715 16.4597 8.80839C16.4597 8.93053 16.4108 9.0478 16.3234 9.13505C16.236 9.2223 16.1171 9.27256 15.9922 9.27506H14.5315V10.1227H16.4013C16.5304 10.1227 16.6543 10.1728 16.7456 10.2621C16.8369 10.3514 16.8882 10.4726 16.8882 10.5989C16.8882 10.7251 16.8369 10.8463 16.7456 10.9356C16.6543 11.0249 16.5304 11.075 16.4013 11.075V11.0084Z" fill="white"/>
</svg>
