<svg width="25" height="25" viewBox="0 0 25 25" fill="none" xmlns="http://www.w3.org/2000/svg">
<path d="M5.31642 7.96719C6.52482 7.96719 7.50442 6.98759 7.50442 5.77919C7.50442 4.57079 6.52482 3.59119 5.31642 3.59119C4.10802 3.59119 3.12842 4.57079 3.12842 5.77919C3.12842 6.98759 4.10802 7.96719 5.31642 7.96719Z" fill="white"/>
<path d="M9.57034 9.62519V21.7642H13.3393V15.7612C13.3393 14.1772 13.6373 12.6432 15.6013 12.6432C17.5383 12.6432 17.5623 14.4542 17.5623 15.8612V21.7652H21.3333V15.1082C21.3333 11.8382 20.6293 9.3252 16.8073 9.3252C14.9723 9.3252 13.7423 10.3322 13.2393 11.2852H13.1883V9.62519H9.57034ZM3.42834 9.62519H7.20334V21.7642H3.42834V9.62519Z" fill="white"/>
</svg>
